# File created by Blade
# Date/Time:  Wed Sep 24 19:10:19 2014
# Frame Rate: 120.000 fps
#------------------------------------------------------
:FULLY-SPECIFIED
:DEGREES
1961
root -7.757147 33.514038 -4.532636 10.763747 17.077628 23.596061
Spine 3.001352 7.415350 -16.399173
Head -0.363693 8.742745 1.297800
LeftShoulder -2.267438 7.502923 15.420864
LeftArm 27.037038 -21.194614 -56.299329
LeftForeArm -11.587467 -0.000000 41.336060
LeftHand -29.082871 -0.000000 45.899323
LeftHandThumb1 -26.253704 0.000000 33.147579
RightShoulder -13.848934 11.995255 -17.993982
RightArm -14.749117 -31.036115 90.844966
RightForeArm -20.759957 -0.000000 29.680504
RightHand -4.467617 0.000000 8.977756
RightHandThumb1 -24.326973 -0.000000 -32.862282
LeftUpLeg -94.328088 18.714229 -14.343409
LeftLeg 114.073345 -0.000000 -0.000000
LeftFoot 39.446084 8.429830 -20.608159
LeftToeBase 7.108377 -0.000000 -0.000000
RightUpLeg -13.959714 -13.750064 -15.525710
RightLeg 23.946797 -0.000000 -0.000000
RightFoot -14.544162 -22.544869 -5.926259
RightToeBase -0.841132 -0.000000 0.000000
1962
root -7.822421 33.492506 -4.527833 10.948781 17.853291 23.399754
Spine 3.054329 6.881213 -16.162248
Head -0.407141 8.850808 1.571418
LeftShoulder -2.037851 7.319803 15.506059
LeftArm 27.326796 -20.868013 -55.900294
LeftForeArm -12.019988 -0.000000 40.780719
LeftHand -28.722348 -0.000000 45.292203
LeftHandThumb1 -26.253704 0.000000 33.147579
RightShoulder -13.885354 11.971914 -17.907687
RightArm -14.646217 -31.011060 90.714702
RightForeArm -20.748718 -0.000000 29.568195
RightHand -4.429144 -0.000000 9.028651
RightHandThumb1 -24.326973 -0.000000 -32.862282
LeftUpLeg -94.534055 18.912669 -14.544808
LeftLeg 114.741906 -0.000000 -0.000000
LeftFoot 39.253800 8.476366 -20.714928
LeftToeBase 7.269257 -0.000000 -0.000000
RightUpLeg -13.909097 -13.928974 -15.112110
RightLeg 23.889903 -0.000000 -0.000000
RightFoot -14.626035 -22.959913 -5.717400
RightToeBase -0.768394 -0.000000 0.000000
1963
root -7.881956 33.471619 -4.517268 11.085287 18.657269 23.228533
Spine 3.178966 6.350126 -15.935509
Head -0.440915 9.006863 1.863397
LeftShoulder -1.798437 7.117793 15.582098
LeftArm 27.677698 -20.641002 -55.598798
LeftForeArm -12.287972 -0.000000 40.213637
LeftHand -28.518868 -0.000000 44.833772
LeftHandThumb1 -26.253704 0.000000 33.147579
RightShoulder -13.949084 11.986784 -17.837916
RightArm -14.670554 -30.955446 90.638699
RightForeArm -20.824000 -0.000000 29.564513
RightHand -4.419306 -0.000000 9.014606
RightHandThumb1 -24.326973 -0.000000 -32.862282
LeftUpLeg -94.656424 19.089342 -14.670221
LeftLeg 115.375283 -0.000000 -0.000000
LeftFoot 39.158743 8.543910 -20.669882
LeftToeBase 7.502520 -0.000000 -0.000000
RightUpLeg -13.777244 -14.130758 -14.746191
RightLeg 23.839163 -0.000000 -0.000000
RightFoot -14.766353 -23.364586 -5.468412
RightToeBase -0.646894 -0.000000 0.000000
1964
root -7.950653 33.448347 -4.507613 11.227348 19.493391 23.009432
Spine 3.288929 5.812905 -15.664556
Head -0.524223 9.101864 2.135541
LeftShoulder -1.512483 6.846564 15.670173
LeftArm 27.922605 -20.292837 -55.190848
LeftForeArm -12.663653 -0.000000 39.680547
LeftHand -28.101066 -0.000000 44.141082
LeftHandThumb1 -26.253704 0.000000 33.147579
RightShoulder -14.052967 12.016289 -17.787840
RightArm -14.642776 -31.006103 90.561315
RightForeArm -20.685410 -0.000000 29.453715
RightHand -4.398256 0.000000 9.046348
RightHandThumb1 -24.326973 -0.000000 -32.862282
LeftUpLeg -94.776095 19.261873 -14.623408
LeftLeg 116.005093 -0.000000 -0.000000
LeftFoot 39.152712 8.665595 -20.775693
LeftToeBase 6.885265 -0.000000 -0.000000
RightUpLeg -13.676706 -14.310905 -14.297829
RightLeg 23.774092 -0.000000 -0.000000
RightFoot -14.858474 -23.843247 -5.246682
RightToeBase -0.550749 -0.000000 0.000000
1965
root -8.012686 33.427049 -4.502355 11.404405 20.352864 22.823366
Spine 3.355003 5.218422 -15.395980
Head -0.512786 9.282660 2.377152
LeftShoulder -1.257735 6.657164 15.748202
LeftArm 28.293574 -20.033738 -54.904836
LeftForeArm -12.976395 -0.000000 39.082576
LeftHand -27.773418 -0.000000 43.472638
LeftHandThumb1 -26.253704 0.000000 33.147579
RightShoulder -14.084963 12.022697 -17.743090
RightArm -14.659474 -30.931866 90.497043
RightForeArm -20.675208 -0.000000 29.397231
RightHand -4.407904 0.000000 8.936562
RightHandThumb1 -24.326973 -0.000000 -32.862282
LeftUpLeg -94.900951 19.369298 -14.539703
LeftLeg 116.576851 -0.000000 -0.000000
LeftFoot 39.199665 8.799237 -20.811016
LeftToeBase 6.705885 -0.000000 -0.000000
RightUpLeg -13.609505 -14.527702 -13.884464
RightLeg 23.720274 -0.000000 -0.000000
RightFoot -14.966530 -24.294115 -4.983097
RightToeBase -0.442155 -0.000000 0.000000
1966
root -8.071377 33.406586 -4.491229 11.547184 21.170799 22.692524
Spine 3.462431 4.706052 -15.200550
Head -0.522093 9.406998 2.592237
LeftShoulder -0.970512 6.450448 15.845269
LeftArm 28.656155 -19.732219 -54.599722
LeftForeArm -13.224248 -0.000000 38.532608
LeftHand -27.477118 -0.000000 43.098037
LeftHandThumb1 -26.253704 0.000000 33.147579
RightShoulder -14.151737 12.007584 -17.706110
RightArm -14.675611 -30.926044 90.449731
RightForeArm -20.575558 -0.000000 29.366157
RightHand -4.426828 -0.000000 9.084261
RightHandThumb1 -24.326973 -0.000000 -32.862282
LeftUpLeg -94.923885 19.526834 -14.377902
LeftLeg 117.154145 -0.000000 -0.000000
LeftFoot 39.287784 8.847148 -20.875647
LeftToeBase 6.211478 -0.000000 -0.000000
RightUpLeg -13.463086 -14.367252 -13.564991
RightLeg 23.628086 -0.000000 -0.000000
RightFoot -15.087891 -25.001160 -4.593654
RightToeBase -0.328946 -0.000000 0.000000
1967
root -8.137951 33.385816 -4.481954 11.702323 21.955429 22.497736
Spine 3.507497 4.217351 -14.955680
Head -0.506744 9.551881 2.801123
LeftShoulder -0.695742 6.260588 15.953617
LeftArm 29.068429 -19.574953 -54.500288
LeftForeArm -13.320681 -0.000000 38.035181
LeftHand -27.260719 -0.000000 42.573557
LeftHandThumb1 -26.253704 0.000000 33.147579
RightShoulder -14.162804 11.980067 -17.644083
RightArm -14.674281 -30.916984 90.396247
RightForeArm -20.514932 -0.000000 29.279065
RightHand -4.356541 0.000000 9.146654
RightHandThumb1 -24.326973 -0.000000 -32.862282
LeftUpLeg -94.977972 19.748717 -14.090725
LeftLeg 117.682687 -0.000000 -0.000000
LeftFoot 39.272321 8.558339 -20.652376
LeftToeBase 6.372278 -0.000000 -0.000000
RightUpLeg -13.441908 -14.533156 -13.135369
RightLeg 23.597632 -0.000000 -0.000000
RightFoot -15.239048 -25.353290 -4.238333
RightToeBase -0.182614 -0.000000 0.000000
1968
root -8.210123 33.360782 -4.458237 11.796850 22.661552 22.191111
Spine 3.517336 3.816267 -14.621630
Head -0.471003 9.732955 2.982195
LeftShoulder -0.480026 6.075625 16.043690
LeftArm 29.404927 -19.210614 -54.244230
LeftForeArm -13.579061 0.000000 37.622639
LeftHand -26.906280 -0.000000 42.268893
LeftHandThumb1 -26.253704 0.000000 33.147579
RightShoulder -14.201455 11.919668 -17.577707
RightArm -14.662905 -30.968083 90.315497
RightForeArm -20.494716 -0.000000 29.237254
RightHand -4.372601 -0.000000 9.152333
RightHandThumb1 -24.326973 -0.000000 -32.862282
LeftUpLeg -95.060723 20.123284 -13.691147
LeftLeg 118.220671 -0.000000 -0.000000
LeftFoot 39.266848 8.685582 -20.635532
LeftToeBase 4.961436 -0.000000 -0.000000
RightUpLeg -13.422597 -14.659748 -12.587057
RightLeg 23.562984 -0.000000 -0.000000
RightFoot -15.209694 -25.855329 -4.194010
RightToeBase -0.242695 -0.000000 0.000000
